<svg width="421.445" height="76.25" viewBox="0 0 421.445 76.25" xmlns="http://www.w3.org/2000/svg"><g id="svgGroup" stroke-linecap="round" fill-rule="evenodd" font-size="9pt" stroke="#6a00ff" stroke-width="0" fill="#ff8000" style="stroke:#6a00ff;stroke-width:0;fill:#ff8000"><path d="M 0 17.734 L 0 76.25 L 10.859 76.25 L 10.859 56.328 A 13.918 13.918 0 0 0 12.422 57.812 A 15.716 15.716 0 0 0 14.141 59.023 A 13.332 13.332 0 0 0 17.441 60.332 Q 19.219 60.781 21.328 60.781 Q 25.313 60.781 28.398 59.141 Q 31.484 57.5 33.594 54.609 A 19.107 19.107 0 0 0 35.838 50.507 A 24.21 24.21 0 0 0 36.738 47.813 A 30.688 30.688 0 0 0 37.708 42.074 A 37.031 37.031 0 0 0 37.813 39.258 L 37.813 38.438 A 37.359 37.359 0 0 0 37.491 33.434 A 29.506 29.506 0 0 0 36.738 29.668 A 22.58 22.58 0 0 0 35.305 25.77 A 18.077 18.077 0 0 0 33.555 22.852 A 14.56 14.56 0 0 0 28.359 18.496 A 14.482 14.482 0 0 0 23.905 17.135 A 18.71 18.71 0 0 0 21.25 16.953 A 16.465 16.465 0 0 0 18.796 17.13 A 13.983 13.983 0 0 0 17.598 17.363 Q 15.898 17.773 14.492 18.516 A 13.088 13.088 0 0 0 12.305 19.98 A 13.581 13.581 0 0 0 10.43 21.875 L 10.039 17.734 L 0 17.734 Z M 26.953 38.438 L 26.953 39.258 A 26.16 26.16 0 0 1 26.732 42.718 A 22.62 22.62 0 0 1 26.484 44.199 A 15.017 15.017 0 0 1 25.832 46.509 A 11.874 11.874 0 0 1 25 48.281 A 7.984 7.984 0 0 1 23.09 50.538 A 7.579 7.579 0 0 1 22.363 51.055 A 6.519 6.519 0 0 1 20.07 51.927 A 8.924 8.924 0 0 1 18.437 52.07 Q 16.992 52.07 15.82 51.777 A 8.119 8.119 0 0 1 14.557 51.354 A 6.602 6.602 0 0 1 13.75 50.938 A 7.489 7.489 0 0 1 12.09 49.531 A 8.539 8.539 0 0 1 10.859 47.695 L 10.859 30.039 A 8.455 8.455 0 0 1 11.756 28.608 A 7.47 7.47 0 0 1 12.168 28.125 A 6.813 6.813 0 0 1 13.945 26.758 A 8.063 8.063 0 0 1 15.395 26.178 A 9.492 9.492 0 0 1 15.937 26.035 Q 17.031 25.781 18.359 25.781 A 9.071 9.071 0 0 1 20.214 25.962 A 6.588 6.588 0 0 1 22.285 26.758 Q 23.906 27.734 24.961 29.414 Q 25.977 31.133 26.465 33.457 A 22.96 22.96 0 0 1 26.905 36.81 A 27.278 27.278 0 0 1 26.953 38.437 Z" id="0" vector-effect="non-scaling-stroke"/><path d="M 74.805 54.063 L 75.43 60 L 85.273 60 L 85.273 17.734 L 74.375 17.734 L 74.375 47.383 Q 73.867 48.398 73.164 49.219 A 7.485 7.485 0 0 1 71.562 50.625 A 7.862 7.862 0 0 1 70.035 51.362 A 9.769 9.769 0 0 1 69.121 51.641 A 11.19 11.19 0 0 1 67.481 51.922 A 14.781 14.781 0 0 1 66.016 51.992 Q 64.466 51.992 63.301 51.685 A 6.761 6.761 0 0 1 62.773 51.523 Q 61.445 51.055 60.625 49.961 Q 59.805 48.906 59.434 47.148 Q 59.153 45.82 59.085 44.022 A 31.815 31.815 0 0 1 59.062 42.812 L 59.063 17.734 L 48.203 17.734 L 48.203 42.734 A 35.972 35.972 0 0 0 48.38 46.409 Q 48.64 48.928 49.277 50.957 Q 50.352 54.375 52.305 56.563 A 11.457 11.457 0 0 0 56.992 59.805 A 16.307 16.307 0 0 0 61.205 60.74 A 19.813 19.813 0 0 0 63.008 60.82 A 12.736 12.736 0 0 0 69.629 59.023 A 15.953 15.953 0 0 0 74.112 55.018 A 18.843 18.843 0 0 0 74.805 54.062 Z" id="1" vector-effect="non-scaling-stroke"/><path d="M 121.758 0 L 98.125 0 L 98.125 8.867 L 110.781 8.867 L 110.781 51.172 L 98.125 51.172 L 98.125 60 L 133.867 60 L 133.867 51.172 L 121.758 51.172 L 121.758 0 Z" id="2" vector-effect="non-scaling-stroke"/><path d="M 153.477 46.602 L 143.125 46.602 A 11.056 11.056 0 0 0 143.9 50.618 A 13.409 13.409 0 0 0 144.395 51.738 A 13.188 13.188 0 0 0 147.105 55.39 A 15.923 15.923 0 0 0 148.125 56.289 A 17.072 17.072 0 0 0 151.271 58.327 A 22.917 22.917 0 0 0 154.238 59.57 A 22.395 22.395 0 0 0 158.433 60.546 A 30.899 30.899 0 0 0 162.656 60.82 A 34.158 34.158 0 0 0 166.787 60.581 A 26.247 26.247 0 0 0 170.508 59.863 A 22.67 22.67 0 0 0 173.77 58.716 A 17.149 17.149 0 0 0 176.523 57.187 A 13.375 13.375 0 0 0 179.137 54.82 A 11.652 11.652 0 0 0 180.332 53.105 A 10.267 10.267 0 0 0 181.68 47.93 A 11.546 11.546 0 0 0 181.393 45.299 A 8.865 8.865 0 0 0 180.332 42.676 A 11.604 11.604 0 0 0 177.493 39.541 A 13.95 13.95 0 0 0 176.602 38.906 A 19.551 19.551 0 0 0 173.727 37.404 A 26.146 26.146 0 0 0 170.938 36.406 A 53.44 53.44 0 0 0 166.622 35.323 A 64.47 64.47 0 0 0 163.828 34.805 Q 161.916 34.524 160.49 34.172 A 19.351 19.351 0 0 1 159.453 33.887 A 15.232 15.232 0 0 1 158.359 33.508 Q 157.399 33.131 156.758 32.695 Q 155.943 32.194 155.53 31.579 A 2.605 2.605 0 0 1 155.352 31.27 Q 154.961 30.469 154.961 29.531 A 3.715 3.715 0 0 1 155.41 27.754 Q 155.859 26.914 156.719 26.289 A 5.61 5.61 0 0 1 157.718 25.699 Q 158.213 25.468 158.803 25.29 A 10.144 10.144 0 0 1 159.141 25.195 Q 160.416 24.86 162.067 24.812 A 19.252 19.252 0 0 1 162.617 24.805 A 15.678 15.678 0 0 1 164.409 24.901 Q 165.635 25.043 166.621 25.391 A 8.733 8.733 0 0 1 167.857 25.931 Q 168.537 26.297 169.051 26.758 A 5.145 5.145 0 0 1 169.258 26.953 A 4.995 4.995 0 0 1 170.313 28.613 A 5.403 5.403 0 0 1 170.66 30.373 A 6.207 6.207 0 0 1 170.664 30.586 L 181.523 30.586 A 11.673 11.673 0 0 0 180.234 25.156 Q 178.945 22.656 176.523 20.82 Q 174.063 19.023 170.547 17.988 A 24.824 24.824 0 0 0 166.323 17.153 A 32.97 32.97 0 0 0 162.617 16.953 A 29.057 29.057 0 0 0 158.613 17.217 A 22.079 22.079 0 0 0 155.039 18.008 A 21.001 21.001 0 0 0 151.934 19.248 A 16.057 16.057 0 0 0 149.336 20.859 Q 146.992 22.656 145.742 25.039 Q 144.492 27.422 144.492 30.039 A 10.043 10.043 0 0 0 144.839 32.726 A 8.465 8.465 0 0 0 145.723 34.805 A 11.519 11.519 0 0 0 148.107 37.625 A 13.975 13.975 0 0 0 149.141 38.438 A 18.544 18.544 0 0 0 151.874 40.082 A 24.592 24.592 0 0 0 154.395 41.152 A 42.695 42.695 0 0 0 158.263 42.344 A 53.375 53.375 0 0 0 161.172 43.008 Q 163.163 43.38 164.685 43.751 A 35.619 35.619 0 0 1 166.016 44.102 Q 167.37 44.489 168.353 44.915 A 10.298 10.298 0 0 1 169.102 45.273 A 6.77 6.77 0 0 1 169.771 45.718 Q 170.091 45.96 170.326 46.212 A 2.866 2.866 0 0 1 170.684 46.68 A 3.11 3.11 0 0 1 171.108 47.954 A 3.918 3.918 0 0 1 171.133 48.398 A 3.449 3.449 0 0 1 170.645 50.195 A 3.937 3.937 0 0 1 169.905 51.09 A 5.369 5.369 0 0 1 169.18 51.641 A 6.749 6.749 0 0 1 168.192 52.135 Q 167.478 52.427 166.582 52.637 A 13.046 13.046 0 0 1 165.097 52.89 Q 164.332 52.978 163.473 53 A 22.743 22.743 0 0 1 162.891 53.008 A 16.454 16.454 0 0 1 159.473 52.656 A 10.107 10.107 0 0 1 157.587 52.068 A 8.494 8.494 0 0 1 156.523 51.523 Q 155.234 50.781 154.414 49.551 A 5.514 5.514 0 0 1 153.624 47.653 A 7.191 7.191 0 0 1 153.477 46.602 Z" id="3" vector-effect="non-scaling-stroke"/><path d="M 218.281 60 L 229.297 60 L 229.297 59.336 A 12.071 12.071 0 0 1 228.574 57.578 Q 228.301 56.741 228.102 55.784 A 20.039 20.039 0 0 1 228.047 55.508 Q 227.736 53.898 227.65 51.675 A 46.42 46.42 0 0 1 227.617 49.883 L 227.617 31.758 A 16.746 16.746 0 0 0 227.296 28.407 A 12.927 12.927 0 0 0 226.25 25.293 A 12.757 12.757 0 0 0 222.461 20.664 A 16.215 16.215 0 0 0 218.549 18.498 A 19.841 19.841 0 0 0 216.738 17.891 A 24.812 24.812 0 0 0 211.721 17.027 A 29.543 29.543 0 0 0 209.609 16.953 Q 205.352 16.953 202.051 18.027 A 19.742 19.742 0 0 0 199.009 19.292 A 15.124 15.124 0 0 0 196.484 20.938 A 13.089 13.089 0 0 0 193.951 23.582 A 11.642 11.642 0 0 0 192.988 25.195 A 11.444 11.444 0 0 0 191.797 30.313 L 202.656 30.313 A 6.721 6.721 0 0 1 202.767 29.068 A 5.538 5.538 0 0 1 202.988 28.242 Q 203.32 27.305 204.023 26.641 A 4.647 4.647 0 0 1 205.051 25.911 A 6.361 6.361 0 0 1 206.055 25.488 A 7.719 7.719 0 0 1 207.33 25.194 Q 207.915 25.107 208.575 25.085 A 13.641 13.641 0 0 1 209.023 25.078 A 13.268 13.268 0 0 1 210.639 25.172 Q 211.617 25.292 212.441 25.566 A 7.505 7.505 0 0 1 213.822 26.179 A 5.951 5.951 0 0 1 214.883 26.953 A 5.454 5.454 0 0 1 216.289 29.004 A 6.708 6.708 0 0 1 216.7 30.672 A 8.503 8.503 0 0 1 216.758 31.68 L 216.758 34.18 L 210.703 34.18 Q 206.016 34.18 202.402 35.02 Q 199.043 35.8 196.68 37.239 A 13.885 13.885 0 0 0 196.328 37.461 A 11.755 11.755 0 0 0 193.278 40.246 A 10.914 10.914 0 0 0 192.227 41.934 A 12.726 12.726 0 0 0 191 45.994 A 16.288 16.288 0 0 0 190.859 48.164 Q 190.859 50.898 191.953 53.223 A 11.917 11.917 0 0 0 195 57.227 A 13.571 13.571 0 0 0 198.358 59.329 A 16.353 16.353 0 0 0 199.668 59.844 A 17.178 17.178 0 0 0 203.746 60.699 A 20.908 20.908 0 0 0 205.625 60.781 A 18.869 18.869 0 0 0 208.008 60.636 A 15.665 15.665 0 0 0 209.336 60.41 A 16.025 16.025 0 0 0 211.57 59.761 A 13.835 13.835 0 0 0 212.5 59.375 A 13.934 13.934 0 0 0 214.931 57.997 A 12.935 12.935 0 0 0 215.078 57.891 A 14.764 14.764 0 0 0 216.667 56.55 A 12.933 12.933 0 0 0 217.148 56.055 A 24.675 24.675 0 0 0 217.485 57.688 A 21.596 21.596 0 0 0 217.617 58.203 A 11.046 11.046 0 0 0 217.92 59.16 A 8.349 8.349 0 0 0 218.281 60 Z M 211.211 40.664 L 216.758 40.664 L 216.758 47.93 A 6.561 6.561 0 0 1 216.14 48.821 A 8.804 8.804 0 0 1 215.469 49.551 A 8.495 8.495 0 0 1 214.193 50.569 A 10.271 10.271 0 0 1 213.516 50.977 A 11.095 11.095 0 0 1 211.83 51.725 A 13.371 13.371 0 0 1 210.977 51.992 Q 209.57 52.383 207.93 52.383 Q 206.406 52.383 205.254 52.012 A 7.023 7.023 0 0 1 204.225 51.593 A 5.243 5.243 0 0 1 203.32 51.016 A 4.342 4.342 0 0 1 202.129 49.395 A 5.137 5.137 0 0 1 201.729 47.654 A 6.041 6.041 0 0 1 201.719 47.305 A 6.692 6.692 0 0 1 202.023 45.268 A 6.166 6.166 0 0 1 202.266 44.629 A 5.537 5.537 0 0 1 203.738 42.671 A 6.539 6.539 0 0 1 203.945 42.5 A 6.854 6.854 0 0 1 205.153 41.776 Q 205.753 41.491 206.466 41.271 A 12.382 12.382 0 0 1 206.875 41.152 A 12.733 12.733 0 0 1 208.523 40.827 Q 209.362 40.715 210.318 40.68 A 24.379 24.379 0 0 1 211.211 40.664 Z" id="4" vector-effect="non-scaling-stroke"/><path d="M 256.211 24.648 L 256.133 23.711 L 255.703 17.734 L 245.586 17.734 L 245.586 60 L 256.445 60 L 256.445 34.609 A 12.289 12.289 0 0 1 257.572 32.476 A 10.518 10.518 0 0 1 258.32 31.484 A 9.387 9.387 0 0 1 261.055 29.297 A 10.233 10.233 0 0 1 262.958 28.483 A 12.62 12.62 0 0 1 264.082 28.184 Q 265.781 27.813 267.891 27.813 A 36.271 36.271 0 0 1 270.785 27.933 A 42.593 42.593 0 0 1 272.168 28.066 A 37.304 37.304 0 0 1 276.563 28.828 L 278.164 18.008 A 16.552 16.552 0 0 0 277.183 17.746 Q 276.157 17.503 274.785 17.285 A 26.508 26.508 0 0 0 272.173 17.008 A 33.268 33.268 0 0 0 270.234 16.953 A 15.568 15.568 0 0 0 262.383 19.004 Q 258.789 21.055 256.211 24.648 Z" id="5" vector-effect="non-scaling-stroke"/><path d="M 325.977 39.297 L 325.977 38.477 A 38.047 38.047 0 0 0 325.668 33.544 A 32.314 32.314 0 0 0 325.293 31.289 A 24.533 24.533 0 0 0 324.156 27.349 A 20.55 20.55 0 0 0 323.203 25.234 A 18.953 18.953 0 0 0 321.133 22.129 A 13.226 13.226 0 0 0 318.516 19.688 A 13.328 13.328 0 0 0 314.858 17.794 A 15.18 15.18 0 0 0 314.434 17.656 A 15.864 15.864 0 0 0 311.241 17.036 A 19.584 19.584 0 0 0 309.414 16.953 A 16.988 16.988 0 0 0 307.095 17.105 A 13.979 13.979 0 0 0 305.723 17.363 A 12.073 12.073 0 0 0 302.578 18.594 Q 301.563 19.141 300.664 19.902 Q 299.766 20.664 298.984 21.563 L 298.984 0 L 288.125 0 L 288.125 60 L 297.891 60 L 298.398 55.508 Q 299.063 56.367 299.805 57.09 Q 300.547 57.813 301.406 58.398 A 11.809 11.809 0 0 0 304.894 60.137 A 13.295 13.295 0 0 0 305.02 60.176 Q 307.031 60.781 309.492 60.781 Q 312.188 60.781 314.434 60.098 A 13.868 13.868 0 0 0 318.078 58.4 A 12.995 12.995 0 0 0 318.477 58.125 A 13.76 13.76 0 0 0 321.934 54.687 A 18.658 18.658 0 0 0 324.182 50.394 A 20.833 20.833 0 0 0 324.297 50.078 A 26.522 26.522 0 0 0 325.24 46.715 A 31.685 31.685 0 0 0 325.547 45.059 Q 325.977 42.344 325.977 39.297 Z M 315.117 38.477 L 315.117 39.297 A 35.908 35.908 0 0 1 315.014 42.054 A 32.346 32.346 0 0 1 314.98 42.461 A 21.019 21.019 0 0 1 314.756 44.187 A 16.967 16.967 0 0 1 314.531 45.273 Q 314.141 47.031 313.379 48.418 A 6.748 6.748 0 0 1 311.949 50.232 A 6.332 6.332 0 0 1 311.406 50.664 A 6.219 6.219 0 0 1 310.144 51.367 A 7.779 7.779 0 0 1 309.375 51.641 A 8.214 8.214 0 0 1 307.887 51.934 A 10.611 10.611 0 0 1 306.758 51.992 A 12.38 12.38 0 0 1 305.265 51.906 A 9.038 9.038 0 0 1 303.77 51.602 A 7.55 7.55 0 0 1 302.263 50.976 A 6.467 6.467 0 0 1 301.484 50.469 A 6.548 6.548 0 0 1 300.059 49.082 A 10.205 10.205 0 0 1 299.134 47.606 A 11.527 11.527 0 0 1 298.984 47.305 L 298.984 30.469 A 10.991 10.991 0 0 1 299.712 29.163 A 10.115 10.115 0 0 1 299.766 29.082 A 7.689 7.689 0 0 1 300.515 28.125 A 6.905 6.905 0 0 1 300.703 27.93 Q 301.758 26.875 303.242 26.328 Q 304.727 25.781 306.68 25.781 A 10.766 10.766 0 0 1 308.007 25.859 A 7.919 7.919 0 0 1 309.258 26.113 Q 310.391 26.445 311.289 27.109 A 8.649 8.649 0 0 1 312.421 28.145 A 6.535 6.535 0 0 1 313.34 29.434 Q 314.023 30.703 314.453 32.305 A 18.635 18.635 0 0 1 314.844 34.277 A 21.902 21.902 0 0 1 314.961 35.234 Q 315.117 36.797 315.117 38.477 Z" id="6" vector-effect="non-scaling-stroke"/><path d="M 362.305 60 L 373.32 60 L 373.32 59.336 A 12.071 12.071 0 0 1 372.598 57.578 Q 372.324 56.741 372.126 55.784 A 20.039 20.039 0 0 1 372.07 55.508 Q 371.76 53.898 371.674 51.675 A 46.42 46.42 0 0 1 371.641 49.883 L 371.641 31.758 A 16.746 16.746 0 0 0 371.32 28.407 A 12.927 12.927 0 0 0 370.273 25.293 A 12.757 12.757 0 0 0 366.484 20.664 A 16.215 16.215 0 0 0 362.573 18.498 A 19.841 19.841 0 0 0 360.762 17.891 A 24.812 24.812 0 0 0 355.744 17.027 A 29.543 29.543 0 0 0 353.633 16.953 Q 349.375 16.953 346.074 18.027 A 19.742 19.742 0 0 0 343.032 19.292 A 15.124 15.124 0 0 0 340.508 20.938 A 13.089 13.089 0 0 0 337.975 23.582 A 11.642 11.642 0 0 0 337.012 25.195 A 11.444 11.444 0 0 0 335.82 30.313 L 346.68 30.313 A 6.721 6.721 0 0 1 346.791 29.068 A 5.538 5.538 0 0 1 347.012 28.242 Q 347.344 27.305 348.047 26.641 A 4.647 4.647 0 0 1 349.074 25.911 A 6.361 6.361 0 0 1 350.078 25.488 A 7.719 7.719 0 0 1 351.353 25.194 Q 351.939 25.107 352.599 25.085 A 13.641 13.641 0 0 1 353.047 25.078 A 13.268 13.268 0 0 1 354.662 25.172 Q 355.641 25.292 356.465 25.566 A 7.505 7.505 0 0 1 357.846 26.179 A 5.951 5.951 0 0 1 358.906 26.953 A 5.454 5.454 0 0 1 360.312 29.004 A 6.708 6.708 0 0 1 360.723 30.672 A 8.503 8.503 0 0 1 360.781 31.68 L 360.781 34.18 L 354.727 34.18 Q 350.039 34.18 346.426 35.02 Q 343.067 35.8 340.703 37.239 A 13.885 13.885 0 0 0 340.352 37.461 A 11.755 11.755 0 0 0 337.302 40.246 A 10.914 10.914 0 0 0 336.25 41.934 A 12.726 12.726 0 0 0 335.023 45.994 A 16.288 16.288 0 0 0 334.883 48.164 Q 334.883 50.898 335.977 53.223 A 11.917 11.917 0 0 0 339.023 57.227 A 13.571 13.571 0 0 0 342.382 59.329 A 16.353 16.353 0 0 0 343.691 59.844 A 17.178 17.178 0 0 0 347.77 60.699 A 20.908 20.908 0 0 0 349.648 60.781 A 18.869 18.869 0 0 0 352.032 60.636 A 15.665 15.665 0 0 0 353.359 60.41 A 16.025 16.025 0 0 0 355.593 59.761 A 13.835 13.835 0 0 0 356.523 59.375 A 13.934 13.934 0 0 0 358.954 57.997 A 12.935 12.935 0 0 0 359.102 57.891 A 14.764 14.764 0 0 0 360.69 56.55 A 12.933 12.933 0 0 0 361.172 56.055 A 24.675 24.675 0 0 0 361.509 57.688 A 21.596 21.596 0 0 0 361.641 58.203 A 11.046 11.046 0 0 0 361.943 59.16 A 8.349 8.349 0 0 0 362.305 60 Z M 355.234 40.664 L 360.781 40.664 L 360.781 47.93 A 6.561 6.561 0 0 1 360.163 48.821 A 8.804 8.804 0 0 1 359.492 49.551 A 8.495 8.495 0 0 1 358.217 50.569 A 10.271 10.271 0 0 1 357.539 50.977 A 11.095 11.095 0 0 1 355.853 51.725 A 13.371 13.371 0 0 1 355 51.992 Q 353.594 52.383 351.953 52.383 Q 350.43 52.383 349.277 52.012 A 7.023 7.023 0 0 1 348.248 51.593 A 5.243 5.243 0 0 1 347.344 51.016 A 4.342 4.342 0 0 1 346.152 49.395 A 5.137 5.137 0 0 1 345.752 47.654 A 6.041 6.041 0 0 1 345.742 47.305 A 6.692 6.692 0 0 1 346.047 45.268 A 6.166 6.166 0 0 1 346.289 44.629 A 5.537 5.537 0 0 1 347.761 42.671 A 6.539 6.539 0 0 1 347.969 42.5 A 6.854 6.854 0 0 1 349.177 41.776 Q 349.776 41.491 350.49 41.271 A 12.382 12.382 0 0 1 350.898 41.152 A 12.733 12.733 0 0 1 352.547 40.827 Q 353.385 40.715 354.341 40.68 A 24.379 24.379 0 0 1 355.234 40.664 Z" id="7" vector-effect="non-scaling-stroke"/><path d="M 403.828 17.734 L 403.828 7.383 L 392.969 7.383 L 392.969 17.734 L 383.32 17.734 L 383.32 25.742 L 392.969 25.742 L 392.969 44.961 A 26.84 26.84 0 0 0 393.149 48.16 Q 393.347 49.806 393.762 51.216 A 14.87 14.87 0 0 0 394.062 52.129 Q 395.156 55.117 397.188 57.031 A 12.014 12.014 0 0 0 401.65 59.78 A 14.036 14.036 0 0 0 402.012 59.902 A 18.65 18.65 0 0 0 405.753 60.686 A 23.736 23.736 0 0 0 408.32 60.82 A 38.715 38.715 0 0 0 411.973 60.645 A 42.785 42.785 0 0 0 415.115 60.232 A 38.854 38.854 0 0 0 415.547 60.156 A 26.517 26.517 0 0 0 418.015 59.589 A 23.267 23.267 0 0 0 418.789 59.355 Q 420.313 58.867 421.445 58.203 L 420.391 50.742 A 19.302 19.302 0 0 1 419.793 50.889 Q 419.46 50.965 419.082 51.041 A 37.05 37.05 0 0 1 418.613 51.133 Q 417.578 51.328 416.406 51.484 Q 415.195 51.68 413.887 51.797 A 28.686 28.686 0 0 1 411.328 51.914 Q 409.609 51.914 408.223 51.523 Q 406.836 51.133 405.859 50.195 A 5.052 5.052 0 0 1 404.903 48.981 Q 404.587 48.431 404.357 47.759 A 8.707 8.707 0 0 1 404.355 47.754 A 8.806 8.806 0 0 1 404.014 46.375 Q 403.898 45.687 403.854 44.895 A 18.018 18.018 0 0 1 403.828 43.906 L 403.828 25.742 L 419.609 25.742 L 419.609 17.734 L 403.828 17.734 Z" id="8" vector-effect="non-scaling-stroke"/></g></svg>